<?xml version="1.0" encoding="UTF-8"?>
<svg version="1.1" xmlns="http://www.w3.org/2000/svg" width="298" height="282">
<path d="M0 0 C98.34 0 196.68 0 298 0 C298 93.06 298 186.12 298 282 C199.66 282 101.32 282 0 282 C0 188.94 0 95.88 0 0 Z " fill="#E3E3E3" transform="translate(0,0)"/>
<path d="M0 0 C14.54252817 0.1554427 29.59273122 10.06916203 39.5625 20.0625 C41.55860217 21.86438682 42.43079003 22.51283725 45.16357422 22.44360352 C46.0145166 22.33975342 46.86545898 22.23590332 47.7421875 22.12890625 C55.89965023 21.94758436 61.87475766 26.59227143 68.4375 30.875 C69.7095166 31.67933482 70.98294765 32.4814373 72.2578125 33.28125 C76.52050497 35.96648287 80.74561887 38.70541258 84.9375 41.5 C84.9375 42.16 84.9375 42.82 84.9375 43.5 C82.50245491 44.5063655 80.06479136 45.50526413 77.625 46.5 C76.93470703 46.78617188 76.24441406 47.07234375 75.53320312 47.3671875 C72.52204326 48.58910744 70.21863016 49.5 66.9375 49.5 C67.9275 51.48 67.9275 51.48 68.9375 53.5 C68.34839844 54.01949219 67.75929688 54.53898437 67.15234375 55.07421875 C66.40082031 55.77160156 65.64929688 56.46898437 64.875 57.1875 C64.12089844 57.87199219 63.36679688 58.55648437 62.58984375 59.26171875 C60.61987254 61.41116864 60.61987254 61.41116864 61.19140625 64.26953125 C61.43761719 65.00558594 61.68382813 65.74164063 61.9375 66.5 C58.84940305 68.26462683 57.70437864 68.5 53.9375 68.5 C52.31264541 69.7912354 52.31264541 69.7912354 50.9375 71.5 C49.5 73.1875 49.5 73.1875 47.9375 74.5 C46.6175 74.5 45.2975 74.5 43.9375 74.5 C41.6275 79.78 39.3175 85.06 36.9375 90.5 C32.94201002 89.16817001 31.81000251 86.65444176 29.70703125 83.2265625 C29.1141053 82.26899551 29.1141053 82.26899551 28.50920105 81.29208374 C27.67481628 79.93486572 26.84546017 78.57454538 26.02075195 77.21142578 C24.76692635 75.15279109 23.47949365 73.11810441 22.18945312 71.08203125 C17.89014199 64.10922128 15.07697959 59.11372776 15.83813477 50.66796875 C16.13704471 48.32815888 16.13704471 48.32815888 14.50390625 45.94921875 C13.84261719 45.36785156 13.18132813 44.78648438 12.5 44.1875 C8.77501156 40.50890821 5.92106675 36.76997866 3.125 32.375 C2.7525415 31.80096436 2.38008301 31.22692871 1.99633789 30.63549805 C-3.71891676 21.59486318 -6.95006781 12.27466044 -6.0625 1.5 C-4.35934952 -0.20315048 -2.34093314 0.12602601 0 0 Z " fill="#E0E0E0" transform="translate(49.0625,55.5)"/>
<path d="M0 0 C11 0 11 0 13.68579102 2.03198242 C14.28576904 2.96373291 14.88574707 3.8954834 15.50390625 4.85546875 C16.18130859 5.87060547 16.85871094 6.88574219 17.55664062 7.93164062 C18.21857422 9.00607422 18.88050781 10.08050781 19.5625 11.1875 C20.60760742 12.77014648 20.60760742 12.77014648 21.67382812 14.38476562 C24.56119617 18.81504477 27.16816501 23.02320485 29 28 C29.66 28 30.32 28 31 28 C31.31324219 27.02353516 31.31324219 27.02353516 31.6328125 26.02734375 C33.53259103 21.82069129 36.17382002 18.29038748 38.875 14.5625 C39.93560136 13.08514166 40.99551048 11.60728609 42.0546875 10.12890625 C42.5712793 9.42910645 43.08787109 8.72930664 43.62011719 8.00830078 C45.19443708 5.82761675 45.19443708 5.82761675 46.6953125 2.46484375 C47.45585937 1.65144531 48.21640625 0.83804688 49 0 C52.63 0 56.26 0 60 0 C60 18.15 60 36.3 60 55 C56.04 55 52.08 55 48 55 C47.67 44.44 47.34 33.88 47 23 C43.46068078 28.90017621 43.46068078 28.90017621 40.00244141 34.84765625 C37.91493349 38.14808703 36.33724061 40.51284495 32.58740234 41.87890625 C29.66223423 42.15712567 27.76510692 42.00732493 25 41 C22.07998967 38.3859943 20.3036655 35.38488631 18.375 32 C16.60125 29.03 14.8275 26.06 13 23 C12.67 33.56 12.34 44.12 12 55 C8.04 55 4.08 55 0 55 C0 36.85 0 18.7 0 0 Z " fill="#010101" transform="translate(172,123)"/>
<path d="M0 0 C3.59674522 2.19440413 6.20417009 4.56081628 8.1640625 8.3203125 C8.89908253 11.41824927 9.06526568 14.10941585 9.1640625 17.3203125 C4.8740625 17.3203125 0.5840625 17.3203125 -3.8359375 17.3203125 C-4.4959375 15.3403125 -5.1559375 13.3603125 -5.8359375 11.3203125 C-9.65056794 8.92254479 -13.42087621 8.91894329 -17.8359375 9.3203125 C-20.23677188 10.67916366 -20.23677188 10.67916366 -21.8359375 12.3203125 C-21.81068566 15.23069792 -21.81068566 15.23069792 -20.8359375 18.3203125 C-16.8492543 20.68997818 -12.77774083 22.05122583 -8.3359375 23.3203125 C-1.43527666 25.29192988 4.43522717 27.48328773 9.02734375 33.16015625 C11.24733798 37.37890818 10.85358125 41.71655599 10.1640625 46.3203125 C8.43081672 51.52004984 5.60979492 54.18214844 1.1640625 57.3203125 C-7.05821292 60.64396468 -17.56108169 60.80525483 -25.86328125 57.484375 C-30.49038603 54.75392505 -34.12365649 51.07560312 -35.48828125 45.796875 C-35.7734375 43.3203125 -35.7734375 43.3203125 -35.8359375 39.3203125 C-31.5459375 39.3203125 -27.2559375 39.3203125 -22.8359375 39.3203125 C-22.1759375 41.3003125 -21.5159375 43.2803125 -20.8359375 45.3203125 C-16.99483543 48.14417356 -12.40771181 47.89912429 -7.8359375 47.3203125 C-5.3170108 46.00267921 -5.3170108 46.00267921 -3.8359375 44.3203125 C-3.61803031 41.4363375 -3.61803031 41.4363375 -4.8359375 38.3203125 C-9.38825988 35.07967623 -15.16270884 33.93811596 -20.4609375 32.4453125 C-27.07934197 30.47140239 -31.52716406 27.93404484 -35.2734375 22.0703125 C-36.44961893 16.32009217 -36.81292495 11.2742874 -34.1484375 5.9453125 C-25.30495956 -4.09323003 -12.025183 -5.60130674 0 0 Z " fill="#040404" transform="translate(146.8359375,121.6796875)"/>
<path d="M0 0 C14.54252817 0.1554427 29.59273122 10.06916203 39.5625 20.0625 C41.55860217 21.86438682 42.43079003 22.51283725 45.16357422 22.44360352 C46.0145166 22.33975342 46.86545898 22.23590332 47.7421875 22.12890625 C55.89965023 21.94758436 61.87475766 26.59227143 68.4375 30.875 C69.7095166 31.67933482 70.98294765 32.4814373 72.2578125 33.28125 C76.52050497 35.96648287 80.74561887 38.70541258 84.9375 41.5 C84.9375 42.16 84.9375 42.82 84.9375 43.5 C82.50245491 44.5063655 80.06479136 45.50526413 77.625 46.5 C76.93470703 46.78617188 76.24441406 47.07234375 75.53320312 47.3671875 C72.52204326 48.58910744 70.21863016 49.5 66.9375 49.5 C67.9275 51.48 67.9275 51.48 68.9375 53.5 C68.34839844 54.01949219 67.75929688 54.53898437 67.15234375 55.07421875 C66.40082031 55.77160156 65.64929688 56.46898437 64.875 57.1875 C64.12089844 57.87199219 63.36679688 58.55648437 62.58984375 59.26171875 C60.61987254 61.41116864 60.61987254 61.41116864 61.19140625 64.26953125 C61.43761719 65.00558594 61.68382813 65.74164063 61.9375 66.5 C58.84940305 68.26462683 57.70437864 68.5 53.9375 68.5 C52.31264541 69.7912354 52.31264541 69.7912354 50.9375 71.5 C49.5 73.1875 49.5 73.1875 47.9375 74.5 C46.6175 74.5 45.2975 74.5 43.9375 74.5 C41.6275 79.78 39.3175 85.06 36.9375 90.5 C32.94201002 89.16817001 31.81000251 86.65444176 29.70703125 83.2265625 C29.1141053 82.26899551 29.1141053 82.26899551 28.50920105 81.29208374 C27.67481628 79.93486572 26.84546017 78.57454538 26.02075195 77.21142578 C24.76692635 75.15279109 23.47949365 73.11810441 22.18945312 71.08203125 C17.89014199 64.10922128 15.07697959 59.11372776 15.83813477 50.66796875 C16.13704471 48.32815888 16.13704471 48.32815888 14.50390625 45.94921875 C13.84261719 45.36785156 13.18132813 44.78648438 12.5 44.1875 C8.77501156 40.50890821 5.92106675 36.76997866 3.125 32.375 C2.7525415 31.80096436 2.38008301 31.22692871 1.99633789 30.63549805 C-3.71891676 21.59486318 -6.95006781 12.27466044 -6.0625 1.5 C-4.35934952 -0.20315048 -2.34093314 0.12602601 0 0 Z M7.9375 3.5 C7.421875 4.593125 6.90625 5.68625 6.375 6.8125 C3.9978804 11.05183965 1.46752518 12.01903023 -3.0625 13.5 C-0.84996793 31.63197016 16.27752177 47.30961297 28.33642578 59.82714844 C29.79411264 61.35018448 31.22662768 62.89242492 32.65234375 64.4453125 C33.42707031 65.26773438 34.20179687 66.09015625 35 66.9375 C35.65097656 67.63746094 36.30195312 68.33742188 36.97265625 69.05859375 C38.87737508 70.67241684 38.87737508 70.67241684 41.4140625 70.97265625 C44.76141178 70.34567597 45.96198524 68.98191432 48.25 66.5 C48.94738281 65.7575 49.64476562 65.015 50.36328125 64.25 C50.88277344 63.6725 51.40226562 63.095 51.9375 62.5 C47.40758204 57.06266945 42.59455784 52.03541069 37.5625 47.0625 C36.82644531 46.33095703 36.09039062 45.59941406 35.33203125 44.84570312 C33.53613926 43.06147277 31.73794015 41.27963876 29.9375 39.5 C30.2675 38.51 30.5975 37.52 30.9375 36.5 C34.60502005 38.0391801 36.92330573 40.25485452 39.703125 43.0703125 C40.59257813 43.96621094 41.48203125 44.86210938 42.3984375 45.78515625 C43.31882813 46.72230469 44.23921875 47.65945312 45.1875 48.625 C46.13234856 49.57988637 47.07765633 50.53431859 48.0234375 51.48828125 C50.33268338 53.82109087 52.63713203 56.15844086 54.9375 58.5 C56.06338014 57.54270084 57.1881715 56.58412105 58.3125 55.625 C58.93898437 55.09132812 59.56546875 54.55765625 60.2109375 54.0078125 C61.49586651 52.88567993 62.73121975 51.70628025 63.9375 50.5 C64.09298175 46.61295614 63.79427508 44.58425631 61.36328125 41.5078125 C59.29003625 39.41420164 57.15217903 37.44317722 54.9375 35.5 C54.31488281 34.94699219 53.69226563 34.39398438 53.05078125 33.82421875 C51.76707462 32.69660223 50.47484992 31.57863392 49.17578125 30.46875 C47.01377274 28.56708807 44.94025 26.58908881 42.86181641 24.59716797 C34.3413636 16.51882732 20.40765744 3.5 7.9375 3.5 Z " fill="#282828" transform="translate(49.0625,55.5)"/>
<path d="M0 0 C33 0 66 0 100 0 C100 4.95 100 9.9 100 15 C67 15 34 15 0 15 C0 10.05 0 5.1 0 0 Z " fill="#000000" transform="translate(64,191)"/>
<path d="M0 0 C32.67 0 65.34 0 99 0 C99 4.62 99 9.24 99 14 C66.33 14 33.66 14 0 14 C0 9.38 0 4.76 0 0 Z " fill="#000000" transform="translate(165,101)"/>
<path d="M0 0 C2.8100346 1.79363911 4.50940468 3.01880935 6 6 C6.55512815 10.63213493 6.6364242 13.98172127 4.125 18 C0.9016228 21.03376677 -1.44452233 21.42119354 -5.89453125 21.33203125 C-9.79869187 20.71634729 -11.52077525 18.96297593 -14 16 C-15.11493718 12.90548049 -15.45867973 10.26235961 -15 7 C-11.63313518 0.67397664 -6.89544141 -0.99072434 0 0 Z " fill="#6F6F6F" transform="translate(70,68)"/>
<path d="M0 0 C6.07656432 -0.39579155 9.74707452 0.35995538 14.90625 3.71875 C15.82150452 4.28474915 15.82150452 4.28474915 16.75524902 4.86218262 C18.68103411 6.05836313 20.59024302 7.2784307 22.5 8.5 C23.81147811 9.32064577 25.12397043 10.13967308 26.4375 10.95703125 C29.637026 12.95284056 32.82193616 14.97020543 36 17 C34.43007745 20.1398451 31.77552998 20.42143346 28.5625 21.625 C27.38816406 22.07101563 26.21382812 22.51703125 25.00390625 22.9765625 C22 24 22 24 20 24 C19.5359375 22.7934375 19.5359375 22.7934375 19.0625 21.5625 C15.35646071 14.15042143 7.71566402 8.59010893 1.43359375 3.41015625 C0.96050781 2.94480469 0.48742187 2.47945313 0 2 C0 1.34 0 0.68 0 0 Z " fill="#DEDEDE" transform="translate(95,80)"/>
<path d="M0 0 C5.53809206 4.50774935 10.51469157 9.45946038 15.4675293 14.5925293 C18.76836751 17.99255682 18.76836751 17.99255682 23 20 C22.37321829 23.66172475 21.35548154 26.8818995 19.9375 30.3125 C19.57527344 31.19550781 19.21304688 32.07851562 18.83984375 32.98828125 C18.56269531 33.65214844 18.28554687 34.31601563 18 35 C12.72540318 33.24180106 10.6252743 27.39534865 7.8828125 22.7734375 C6.75941785 20.89078302 5.60749984 19.02783521 4.453125 17.1640625 C3.73254451 15.96203293 3.01373609 14.75893893 2.296875 13.5546875 C1.64041992 12.46655762 0.98396484 11.37842773 0.30761719 10.25732422 C-1.25483191 6.365204 -0.92244181 4.03743724 0 0 Z " fill="#DFDFDF" transform="translate(68,108)"/>
<path d="M0 0 C3.56764285 1.51376081 5.83706287 3.60513129 8.546875 6.3515625 C9.39121094 7.20234375 10.23554687 8.053125 11.10546875 8.9296875 C12.41451172 10.26386719 12.41451172 10.26386719 13.75 11.625 C14.63816406 12.5221875 15.52632812 13.419375 16.44140625 14.34375 C18.63216969 16.55807004 20.81812763 18.77692435 23 21 C23.47123291 20.5654248 23.94246582 20.13084961 24.42797852 19.68310547 C25.05115967 19.12510254 25.67434082 18.56709961 26.31640625 17.9921875 C26.93201416 17.4338623 27.54762207 16.87553711 28.18188477 16.30029297 C30 15 30 15 32.9375 15.125 C33.9584375 15.558125 33.9584375 15.558125 35 16 C34.59007812 16.45890625 34.18015625 16.9178125 33.7578125 17.390625 C33.21898437 18.00421875 32.68015625 18.6178125 32.125 19.25 C31.59132812 19.85328125 31.05765625 20.4565625 30.5078125 21.078125 C28.98840061 23.01478471 27.87478297 24.69793955 27 27 C27.33 27.99 27.66 28.98 28 30 C23.89891114 28.37843976 21.16851833 25.4232297 18.140625 22.3359375 C17.59138367 21.78386627 17.04214233 21.23179504 16.47625732 20.66299438 C14.72940707 18.90498185 12.98965399 17.1401311 11.25 15.375 C10.06426409 14.1792292 8.8780712 12.98391135 7.69140625 11.7890625 C4.78894915 8.86459747 1.8928359 5.93398126 -1 3 C-0.67 2.01 -0.34 1.02 0 0 Z " fill="#1E1E1E" transform="translate(81,92)"/>
<path d="M0 0 C0.66 0.33 1.32 0.66 2 1 C2 2.32 2 3.64 2 5 C4.06860671 7.54165017 4.06860671 7.54165017 6.84765625 10.0625 C7.85489258 11.03377653 8.86205171 12.00513312 9.86914062 12.9765625 C11.4679219 14.4943336 13.07069516 16.0077128 14.67602539 17.51855469 C16.22279171 18.98108998 17.75426685 20.45838163 19.28515625 21.9375 C20.21207275 22.81277344 21.13898926 23.68804687 22.09399414 24.58984375 C24 27 24 27 23.95092773 29.15625 C22.51086474 31.94838242 20.23495304 33.82092078 18 36 C17.67 36.99 17.34 37.98 17 39 C15.68 39 14.36 39 13 39 C12.01 41.475 12.01 41.475 11 44 C10.34 44 9.68 44 9 44 C9.66 41.69 10.32 39.38 11 37 C10.01 36.67 9.02 36.34 8 36 C9.299375 35.4740625 9.299375 35.4740625 10.625 34.9375 C14.91051006 32.7274349 14.91051006 32.7274349 20 26 C12.74 18.74 5.48 11.48 -2 4 C-1.34 2.68 -0.68 1.36 0 0 Z " fill="#2A2A2A" transform="translate(80,91)"/>
<path d="M0 0 C3.5625 0.3125 3.5625 0.3125 5.5625 1.375 C7.19628851 4.54046524 6.41517564 6.96270286 5.5625 10.3125 C2.5625 12.3125 2.5625 12.3125 -0.5 12.0625 C-3.4375 11.3125 -3.4375 11.3125 -5.4375 9.3125 C-5.6875 5.8125 -5.6875 5.8125 -5.4375 2.3125 C-3.4375 0.3125 -3.4375 0.3125 0 0 Z " fill="#DADADA" transform="translate(65.4375,72.6875)"/>
<path d="M0 0 C0.33 0.66 0.66 1.32 1 2 C1.66 2.33 2.32 2.66 3 3 C2.76627686 4.01980957 2.53255371 5.03961914 2.29174805 6.09033203 C1.93971951 10.80780906 2.89562258 12.55491414 5.33203125 16.5546875 C5.68383957 17.14170441 6.03564789 17.72872131 6.39811707 18.33352661 C7.140105 19.56399514 7.89112703 20.78905676 8.65063477 22.00878906 C9.81572312 23.88017704 10.95376917 25.76596587 12.08789062 27.65625 C15.20201733 33.68190024 15.20201733 33.68190024 20 38 C20.28875 36.865625 20.5775 35.73125 20.875 34.5625 C21.24625 33.386875 21.6175 32.21125 22 31 C22.66 30.67 23.32 30.34 24 30 C23.52269162 31.4589426 23.04308958 32.91713496 22.5625 34.375 C22.29566406 35.18710938 22.02882813 35.99921875 21.75390625 36.8359375 C21 39 21 39 20 41 C15.99453434 39.66484478 14.8480796 37.12582737 12.734375 33.69140625 C12.33671936 33.05065659 11.93906372 32.40990692 11.52935791 31.7497406 C10.69072686 30.38836314 9.85717421 29.02384627 9.02832031 27.65649414 C7.76445016 25.58617055 6.46553376 23.54096853 5.1640625 21.49414062 C-2.24265307 9.51098455 -2.24265307 9.51098455 -0.52636719 1.64038086 C-0.35266602 1.09905518 -0.17896484 0.55772949 0 0 Z " fill="#262626" transform="translate(66,105)"/>
<path d="M0 0 C4.07637122 1.62275148 6.82612042 4.53715823 9.859375 7.59375 C10.40861633 8.14107788 10.95785767 8.68840576 11.52374268 9.25231934 C12.67925859 10.4064778 13.83226685 11.56315167 14.98291016 12.72216797 C16.750735 14.50073946 18.5290213 16.26834763 20.30859375 18.03515625 C21.43032971 19.15821308 22.55144551 20.28188976 23.671875 21.40625 C24.20617126 21.9364978 24.74046753 22.46674561 25.29095459 23.01306152 C29 26.77006146 29 26.77006146 29 29 C24.92362878 27.37724852 22.17387958 24.46284177 19.140625 21.40625 C18.59138367 20.85892212 18.04214233 20.31159424 17.47625732 19.74768066 C16.32074141 18.5935222 15.16773315 17.43684833 14.01708984 16.27783203 C12.249265 14.49926054 10.4709787 12.73165237 8.69140625 10.96484375 C7.56967029 9.84178692 6.44855449 8.71811024 5.328125 7.59375 C4.79382874 7.0635022 4.25953247 6.53325439 3.70904541 5.98693848 C0 2.22993854 0 2.22993854 0 0 Z " fill="#C1C1C1" transform="translate(80,93)"/>
<path d="M0 0 C3.3 0 6.6 0 10 0 C9.65203317 3.13170151 9.18725914 4.76754038 7.1875 7.25 C5.01967558 8.98425953 3.73957722 9.71659546 1 10 C0 9 0 9 -0.09765625 6.93359375 C-0.06510417 4.62239583 -0.03255208 2.31119792 0 0 Z " fill="#DCDCDC" transform="translate(45,58)"/>
<path d="M0 0 C2.375 1.5625 2.375 1.5625 4 4 C4.56783945 7.97487617 4.62340519 10.06489221 2.375 13.4375 C-0.75683492 15.49791771 -2.31544773 15.6767545 -6 15 C-8.9375 12.9375 -8.9375 12.9375 -11 10 C-11.06641554 6.14789873 -10.87229157 4.00151995 -8.3125 1.0625 C-5.26397123 -0.33817538 -3.32073048 -0.4842732 0 0 Z M-9 4 C-9.50007794 7.45786015 -9.50007794 7.45786015 -9 11 C-7.5 13.16666667 -7.5 13.16666667 -5 14 C-1.87319901 14.00674926 -1.87319901 14.00674926 1 13 C3.15502531 9.76746204 3.46856135 8.74849077 3 5 C2.04451019 3.04374022 2.04451019 3.04374022 0 2 C-5.03541882 1.37014553 -5.03541882 1.37014553 -9 4 Z " fill="#292929" transform="translate(69,71)"/>
<path d="M0 0 C0.33 0.66 0.66 1.32 1 2 C1.66 2.33 2.32 2.66 3 3 C2.71125 3.928125 2.4225 4.85625 2.125 5.8125 C1.21448567 11.55938267 5.08363848 16.32536835 8 21 C7.34 21.33 6.68 21.66 6 22 C-1.67606189 10.859182 -1.67606189 10.859182 -0.9375 4.25 C-0.66636085 2.82483887 -0.36935236 1.40291822 0 0 Z " fill="#2D2D2D" transform="translate(66,105)"/>
<path d="M0 0 C1.65322266 0.01740234 1.65322266 0.01740234 3.33984375 0.03515625 C4.99693359 0.04869141 4.99693359 0.04869141 6.6875 0.0625 C7.54214844 0.07410156 8.39679687 0.08570313 9.27734375 0.09765625 C6.18845853 2.15691306 5.56798448 2.33669365 2.08984375 2.22265625 C0.20265625 2.16078125 0.20265625 2.16078125 -1.72265625 2.09765625 C-2.05265625 5.06765625 -2.38265625 8.03765625 -2.72265625 11.09765625 C-3.05265625 11.09765625 -3.38265625 11.09765625 -3.72265625 11.09765625 C-3.74953776 9.45191059 -3.76899748 7.80604212 -3.78515625 6.16015625 C-3.79675781 5.24363281 -3.80835938 4.32710937 -3.8203125 3.3828125 C-3.67719549 0.03387446 -3.38091958 0.12126684 0 0 Z " fill="#474747" transform="translate(46.72265625,55.90234375)"/>
<path d="M0 0 C1.32 0.33 2.64 0.66 4 1 C3.15167933 5.01024316 2.51976179 7.46656026 -0.375 10.4375 C-3 12 -3 12 -7 12 C-7.33 12.99 -7.66 13.98 -8 15 C-8.33 12.36 -8.66 9.72 -9 7 C-8.01 8.485 -8.01 8.485 -7 10 C-4.05181069 9.51973152 -4.05181069 9.51973152 -1 8 C0.44088563 5.71463927 1.13569208 3.59292376 2 1 C1.34 0.67 0.68 0.34 0 0 Z " fill="#1A1A1A" transform="translate(53,57)"/>
<path d="M0 0 C0.99 0.33 1.98 0.66 3 1 C2.06725891 2.12894876 1.12859878 3.25300876 0.1875 4.375 C-0.33457031 5.00148438 -0.85664062 5.62796875 -1.39453125 6.2734375 C-3 8 -3 8 -6 10 C-6 6 -6 6 -4.6875 4.296875 C-4.130625 3.78640625 -3.57375 3.2759375 -3 2.75 C-2.1646875 1.96882813 -2.1646875 1.96882813 -1.3125 1.171875 C-0.879375 0.78515625 -0.44625 0.3984375 0 0 Z " fill="#C9C9C9" transform="translate(113,107)"/>
<path d="M0 0 C0.99 0.33 1.98 0.66 3 1 C2.09515208 2.15518918 1.1755794 3.29885406 0.25 4.4375 C-0.26046875 5.07558594 -0.7709375 5.71367188 -1.296875 6.37109375 C-3.19667629 8.18810554 -4.43586908 8.60423197 -7 9 C-5.44499019 5.18315774 -2.96404505 2.80804268 0 0 Z " fill="#C9C9C9" transform="translate(101,119)"/>
<path d="M0 0 C0 0.66 0 1.32 0 2 C0.99 2 1.98 2 3 2 C3 2.66 3 3.32 3 4 C1.68 4 0.36 4 -1 4 C-1.66 5.65 -2.32 7.3 -3 9 C-3.66 9 -4.32 9 -5 9 C-4.34 6.69 -3.68 4.38 -3 2 C-3.99 1.67 -4.98 1.34 -6 1 C-4 0 -4 0 0 0 Z " fill="#333333" transform="translate(94,126)"/>
<path d="M0 0 C0.33 0.66 0.66 1.32 1 2 C1.66 2.33 2.32 2.66 3 3 C2.01 5.31 1.02 7.62 0 10 C-0.33 10 -0.66 10 -1 10 C-0.67 6.7 -0.34 3.4 0 0 Z " fill="#4F4F4F" transform="translate(66,105)"/>
</svg>
