<?xml version="1.0" encoding="UTF-8"?>
<svg version="1.1" xmlns="http://www.w3.org/2000/svg" width="500" height="500">
<path d="M0 0 C165 0 330 0 500 0 C500 165 500 330 500 500 C335 500 170 500 0 500 C0 335 0 170 0 0 Z " fill="#E3E3E3" transform="translate(0,0)"/>
<path d="M0 0 C14.34977151 -0.9992104 23.87065946 4.52798596 35 13 C35.93199219 13.91910156 36.86398438 14.83820313 37.82421875 15.78515625 C41.18376951 18.12816398 41.35293244 18.201885 45.05859375 17.84375 C52.05121317 17.43302346 57.40498481 21.87328368 63.0625 25.5 C64.22476848 26.22449311 65.38817323 26.94716669 66.55273438 27.66796875 C69.38015951 29.42777692 72.19474303 31.20514472 75 33 C74.67 33.99 74.34 34.98 74 36 C70.9523106 37.37323214 67.8449913 38.42874122 64.6875 39.5234375 C63.800625 40.01070312 62.91375 40.49796875 62 41 C61.21041553 43.45310135 61.21041553 43.45310135 61 46 C59.35366057 48.0167658 57.68732277 50.01739574 56 52 C55.14720662 54.21735439 55.14720662 54.21735439 55 56 C54.01 55.505 54.01 55.505 53 55 C53 54.01 53 53.02 53 52 C51.12052643 49.70268589 51.12052643 49.70268589 48.625 47.33203125 C47.72265625 46.43935547 46.8203125 45.54667969 45.890625 44.62695312 C44.9272427 43.68863843 43.96369892 42.7504895 43 41.8125 C42.03577654 40.86332231 41.07222608 39.91346044 40.109375 38.96289062 C37.74613254 36.63509681 35.37618518 34.31456867 33 32 C35.29242565 34.92218897 37.59469837 37.71875139 40.234375 40.33203125 C40.80800781 40.90244141 41.38164062 41.47285156 41.97265625 42.06054688 C42.55917969 42.63869141 43.14570313 43.21683594 43.75 43.8125 C44.35199219 44.40998047 44.95398438 45.00746094 45.57421875 45.62304688 C47.04719723 47.08433504 48.52328354 48.54248939 50 50 C48.17495091 53.92300272 45.81729174 56.73787272 43 60 C43.99 60.495 43.99 60.495 45 61 C44.39671875 61.02964844 43.7934375 61.05929688 43.171875 61.08984375 C40.67037439 61.86184517 40.67037439 61.86184517 39.515625 64.94140625 C38.88914062 66.73384766 38.88914062 66.73384766 38.25 68.5625 C37.82203125 69.76003906 37.3940625 70.95757812 36.953125 72.19140625 C36.48132813 73.58166016 36.48132813 73.58166016 36 75 C30.89297998 73.29765999 29.05073397 68.20078362 26.36499023 63.73779297 C25.32589196 62.02211181 24.25586047 60.32528942 23.18554688 58.62890625 C19.64684817 52.78953753 17.3630547 48.74790302 17.9934082 41.87744141 C18.00491511 38.60010471 16.11085715 36.96244981 13.9375 34.6875 C4.54978277 24.1300199 -0.51375556 14.18536195 0 0 Z " fill="#DBDBDB" transform="translate(120,146)"/>
<path d="M0 0 C2.9375 2.5 2.9375 2.5 5 5 C5.86625 5.86625 5.86625 5.86625 6.75 6.75 C8.74300397 10.33740715 8.7008793 13.93195848 9 18 C4.38 18 -0.24 18 -5 18 C-5.99 16.02 -6.98 14.04 -8 12 C-10.47184738 9.67796155 -12.08637532 9.00864629 -15.4765625 8.9765625 C-20.77625901 9.20039957 -20.77625901 9.20039957 -25 12 C-25.66721536 14.91440699 -25.66721536 14.91440699 -25 18 C-20.91854104 21.24800788 -17.14892417 22.74681624 -12.125 24 C-2.80926145 26.53976451 3.29523463 28.98569294 9 37 C11.39152447 41.78304894 10.32926373 47.8841618 8.875 52.8125 C5.43109608 58.66713666 1.09223953 61.60280082 -5.3125 63.49609375 C-14.75278201 65.26614663 -24.77197145 65.02201452 -32.99609375 59.7109375 C-37.32149754 56.34773372 -39.41160794 53.23235031 -41 48 C-41 46.02 -41 44.04 -41 42 C-36.38 42 -31.76 42 -27 42 C-26.01 43.98 -25.02 45.96 -24 48 C-21.81700095 50.15571156 -20.59073498 50.90343755 -17.5625 51.3984375 C-16.2940625 51.38683594 -16.2940625 51.38683594 -15 51.375 C-14.154375 51.38273437 -13.30875 51.39046875 -12.4375 51.3984375 C-9.50628921 50.91929727 -8.12330199 50.05574238 -6 48 C-5.33333333 45 -5.33333333 45 -6 42 C-9.57762459 37.80017983 -16.45944028 36.69913147 -21.59765625 35.28515625 C-29.88305975 32.97324125 -35.65166659 29.784576 -40.08984375 22.1171875 C-42.08939013 17.46588218 -41.50409497 12.51228492 -39.9375 7.8125 C-30.78331548 -5.47583237 -13.81544704 -7.97938904 0 0 Z " fill="#050505" transform="translate(213,204)"/>
<path d="M0 0 C11 0 11 0 13.9453125 2.60546875 C14.71047449 3.77511873 15.43598651 4.97143489 16.125 6.1875 C16.93871783 7.46619945 17.75252207 8.74484392 18.56640625 10.0234375 C18.9648877 10.68053711 19.36336914 11.33763672 19.77392578 12.01464844 C21.74270099 15.20263729 23.9094126 18.24749128 26.0625 21.3125 C26.79597656 22.38113281 27.52945312 23.44976562 28.28515625 24.55078125 C29.78282671 26.84072002 29.78282671 26.84072002 31 28 C31.77694214 26.72769531 31.77694214 26.72769531 32.56958008 25.4296875 C34.511613 22.273122 36.50426467 19.15129321 38.51342773 16.03710938 C39.37382871 14.68789198 40.22045986 13.32978597 41.05249023 11.96289062 C42.25582489 9.99157702 43.50612553 8.0582092 44.76953125 6.125 C45.12835892 5.51253418 45.48718658 4.90006836 45.85688782 4.26904297 C47.00708008 2.5703125 47.00708008 2.5703125 50 0 C53.63 0 57.26 0 61 0 C61 18.48 61 36.96 61 56 C57.04 56 53.08 56 49 56 C48.67 45.44 48.34 34.88 48 24 C44.09474872 29.54892557 44.09474872 29.54892557 40.19165039 35.09936523 C39.70688232 35.78716064 39.22211426 36.47495605 38.72265625 37.18359375 C38.22515869 37.89056396 37.72766113 38.59753418 37.21508789 39.32592773 C35.34141055 41.90736344 35.34141055 41.90736344 33.21484375 42.484375 C30.48085148 42.80326261 28.65423778 42.79293267 26 42 C22.72040454 38.70893742 20.40975353 34.95261499 18 31 C16.68 29.02 15.36 27.04 14 25 C13.67 35.23 13.34 45.46 13 56 C8.71 56 4.42 56 0 56 C0 37.52 0 19.04 0 0 Z " fill="#030303" transform="translate(238,230)"/>
<path d="M0 0 C27.06 0 54.12 0 82 0 C82 5.61 82 11.22 82 17 C54.94 17 27.88 17 0 17 C0 11.39 0 5.78 0 0 Z " fill="#000000" transform="translate(228,204)"/>
<path d="M0 0 C26.07 0 52.14 0 79 0 C79 5.61 79 11.22 79 17 C52.93 17 26.86 17 0 17 C0 11.39 0 5.78 0 0 Z " fill="#000000" transform="translate(148,275)"/>
<path d="M0 0 C2.33333333 0.33333333 4.66666667 0.66666667 7 1 C8.01320312 1.04253906 9.02640625 1.08507812 10.0703125 1.12890625 C15.65994117 1.92848918 20.17644009 5.48608113 24.8125 8.5 C26.693807 9.6982361 28.57530763 10.89616827 30.45703125 12.09375 C31.28178955 12.62677734 32.10654785 13.15980469 32.95629883 13.70898438 C34.95472444 15.01885937 34.95472444 15.01885937 37 16 C36.505 17.485 36.505 17.485 36 19 C32.9523106 20.37323214 29.8449913 21.42874122 26.6875 22.5234375 C25.800625 23.01070312 24.91375 23.49796875 24 24 C23.21041553 26.45310135 23.21041553 26.45310135 23 29 C21.35366057 31.0167658 19.68732277 33.01739574 18 35 C17.14720662 37.21735439 17.14720662 37.21735439 17 39 C16.34 38.67 15.68 38.34 15 38 C15 37.01 15 36.02 15 35 C13.12052643 32.70268589 13.12052643 32.70268589 10.625 30.33203125 C9.72265625 29.43935547 8.8203125 28.54667969 7.890625 27.62695312 C6.9272427 26.68863843 5.96369892 25.7504895 5 24.8125 C4.03577654 23.86332231 3.07222608 22.91346044 2.109375 21.96289062 C-0.25386746 19.63509681 -2.62381482 17.31456867 -5 15 C-2.70757435 17.92218897 -0.40530163 20.71875139 2.234375 23.33203125 C2.80800781 23.90244141 3.38164062 24.47285156 3.97265625 25.06054688 C4.55917969 25.63869141 5.14570313 26.21683594 5.75 26.8125 C6.35199219 27.40998047 6.95398438 28.00746094 7.57421875 28.62304688 C9.04719723 30.08433504 10.52328354 31.54248939 12 33 C10.17495091 36.92300272 7.81729174 39.73787272 5 43 C5.66 43.33 6.32 43.66 7 44 C4.525 44.495 4.525 44.495 2 45 C2 44.01 2 43.02 2 42 C1.30519531 41.95746094 0.61039063 41.91492188 -0.10546875 41.87109375 C-4.22236249 40.63213652 -6.3906169 38.11929386 -9.3125 35.0625 C-9.86228516 34.51142578 -10.41207031 33.96035156 -10.97851562 33.39257812 C-15 29.28117236 -15 29.28117236 -15 27 C-11.14174662 28.54506714 -9.01484232 30.95815635 -6.3125 34.0625 C-5.13107422 35.41021484 -5.13107422 35.41021484 -3.92578125 36.78515625 C-3.29027344 37.51605469 -2.65476563 38.24695313 -2 39 C-0.96367261 40.23007345 -0.96367261 40.23007345 1.25 40.375 C5.10613052 39.84916402 6.50125936 37.85570359 9 35 C7.5735422 31.7413364 5.83295838 29.5975146 3.3046875 27.109375 C2.58925781 26.40039062 1.87382812 25.69140625 1.13671875 24.9609375 C0.39035156 24.23132813 -0.35601562 23.50171875 -1.125 22.75 C-1.87910156 22.00492188 -2.63320312 21.25984375 -3.41015625 20.4921875 C-5.26900772 18.6568658 -7.13237005 16.8263809 -9 15 C-8.67 14.01 -8.34 13.02 -8 12 C-4.22531329 12.56620301 -2.52448107 14.12268981 0.109375 16.81640625 C0.86347656 17.58017578 1.61757812 18.34394531 2.39453125 19.13085938 C3.56048828 20.33452148 3.56048828 20.33452148 4.75 21.5625 C5.93916016 22.77196289 5.93916016 22.77196289 7.15234375 24.00585938 C9.10847046 25.99733778 11.05725719 27.99547721 13 30 C14.47339844 28.88044922 14.47339844 28.88044922 15.9765625 27.73828125 C16.52908691 27.31844971 17.08161133 26.89861816 17.65087891 26.46606445 C19.39984376 24.8606393 19.39984376 24.8606393 19.375 21.1875 C19.25125 20.135625 19.1275 19.08375 19 18 C18.34 18 17.68 18 17 18 C17 17.34 17 16.68 17 16 C16.34 16 15.68 16 15 16 C15 15.34 15 14.68 15 14 C14.45859375 13.78472656 13.9171875 13.56945312 13.359375 13.34765625 C10.17213842 11.52713205 7.79153966 9.04241138 5.25 6.4375 C4.74339844 5.93025391 4.23679688 5.42300781 3.71484375 4.90039062 C0 1.14048812 0 1.14048812 0 0 Z " fill="#A7A7A7" transform="translate(158,163)"/>
<path d="M0 0 C3.14069378 2.20697401 3.90376907 3.69432528 5.0625 7.375 C5 11 5 11 3.0625 14.4375 C-0.31867809 17.26664901 -1.78822086 17.87181493 -6.0625 17.515625 C-9.55075925 16.58729794 -11.00823896 14.92539902 -13 12 C-13.68577608 7.73294881 -13.50023114 5.79347009 -11.1875 2.125 C-7.50859763 -1.44879087 -4.76887416 -1.26521151 0 0 Z " fill="#4C4C4C" transform="translate(143,156)"/>
<path d="M0 0 C3.77468671 0.56620301 5.47551893 2.12268981 8.109375 4.81640625 C9.24052734 5.96206055 9.24052734 5.96206055 10.39453125 7.13085938 C11.56048828 8.33452148 11.56048828 8.33452148 12.75 9.5625 C13.93916016 10.77196289 13.93916016 10.77196289 15.15234375 12.00585938 C17.10847046 13.99733778 19.05725719 15.99547721 21 18 C22.47339844 16.88044922 22.47339844 16.88044922 23.9765625 15.73828125 C24.80534912 15.10853394 24.80534912 15.10853394 25.65087891 14.46606445 C27.39984376 12.8606393 27.39984376 12.8606393 27.375 9.1875 C27.25125 8.135625 27.1275 7.08375 27 6 C27.598125 6.639375 28.19625 7.27875 28.8125 7.9375 C30.90810337 10.20310389 30.90810337 10.20310389 34 11 C33.34 11.66 32.68 12.32 32 13 C31.71125 13.763125 31.4225 14.52625 31.125 15.3125 C30 18 30 18 27.9375 20.5625 C26.11014439 22.86143125 25.4220404 24.15122727 25 27 C24.34 26.67 23.68 26.34 23 26 C23 25.01 23 24.02 23 23 C21.12052643 20.70268589 21.12052643 20.70268589 18.625 18.33203125 C17.72265625 17.43935547 16.8203125 16.54667969 15.890625 15.62695312 C14.9272427 14.68863843 13.96369892 13.7504895 13 12.8125 C12.03577654 11.86332231 11.07222608 10.91346044 10.109375 9.96289062 C7.74613254 7.63509681 5.37618518 5.31456867 3 3 C5.29242565 5.92218897 7.59469837 8.71875139 10.234375 11.33203125 C10.80800781 11.90244141 11.38164062 12.47285156 11.97265625 13.06054688 C12.55917969 13.63869141 13.14570313 14.21683594 13.75 14.8125 C14.35199219 15.40998047 14.95398438 16.00746094 15.57421875 16.62304688 C17.04719723 18.08433504 18.52328354 19.54248939 20 21 C18.17495091 24.92300272 15.81729174 27.73787272 13 31 C13.66 31.33 14.32 31.66 15 32 C12.525 32.495 12.525 32.495 10 33 C10 32.01 10 31.02 10 30 C9.30519531 29.95746094 8.61039063 29.91492188 7.89453125 29.87109375 C3.77763751 28.63213652 1.6093831 26.11929386 -1.3125 23.0625 C-2.13717773 22.23588867 -2.13717773 22.23588867 -2.97851562 21.39257812 C-7 17.28117236 -7 17.28117236 -7 15 C-3.14174662 16.54506714 -1.01484232 18.95815635 1.6875 22.0625 C2.86892578 23.41021484 2.86892578 23.41021484 4.07421875 24.78515625 C4.70972656 25.51605469 5.34523437 26.24695313 6 27 C7.03632739 28.23007345 7.03632739 28.23007345 9.25 28.375 C13.10613052 27.84916402 14.50125936 25.85570359 17 23 C15.5735422 19.7413364 13.83295838 17.5975146 11.3046875 15.109375 C10.58925781 14.40039062 9.87382812 13.69140625 9.13671875 12.9609375 C8.01716797 11.86652344 8.01716797 11.86652344 6.875 10.75 C6.12089844 10.00492188 5.36679688 9.25984375 4.58984375 8.4921875 C2.73099228 6.6568658 0.86762995 4.8263809 -1 3 C-0.67 2.01 -0.34 1.02 0 0 Z " fill="#323232" transform="translate(150,175)"/>
<path d="M0 0 C3.35800085 1.11933362 4.1056451 2.02405444 6.3125 4.6875 C12.00612589 12.06651801 12.00612589 12.06651801 20 16 C19.34580901 21.06998019 17.1453591 25.41990777 15 30 C11.31567789 25.63144664 8.27433252 20.9591693 5.25 16.125 C4.74339844 15.34769531 4.23679688 14.57039062 3.71484375 13.76953125 C0.67465959 8.8937642 -0.64482011 5.7573224 0 0 Z " fill="#DDDDDD" transform="translate(140,189)"/>
<path d="M0 0 C2.375 1.5 2.375 1.5 4 3 C3.6875 6.375 3.6875 6.375 3 10 C-0.46923881 12.31282587 -1.92205575 12.42478586 -6 12 C-7.875 10.875 -7.875 10.875 -9 9 C-9.39365568 5.85075452 -9.52854531 3.88090884 -7.875 1.125 C-5.10703881 -0.53577671 -3.16909182 -0.38805206 0 0 Z " fill="#191919" transform="translate(259,300)"/>
<path d="M0 0 C11.52164009 -0.3690205 11.52164009 -0.3690205 17 2 C13.25 3.125 13.25 3.125 11 2 C10.9175 2.5775 10.835 3.155 10.75 3.75 C9.58302087 7.25093738 7.26813575 9.36593212 4 11 C4.59950296 14.68266103 5.24758891 18.34543185 6 22 C1.62843877 18.09375901 0.19611727 12.94175907 -0.1875 7.1875 C-0.1875 4.78378143 -0.13526055 2.39962233 0 0 Z " fill="#383838" transform="translate(120,146)"/>
<path d="M0 0 C3.07697765 2.91250669 5.50914217 5.97047822 7.9375 9.4375 C10.72314211 13.33219214 13.45603435 16.78828113 17 20 C16.67 20.66 16.34 21.32 16 22 C15.34 21.67 14.68 21.34 14 21 C14.22886763 28.17450262 17.73540517 33.03756351 21.5625 38.9375 C22.17802734 39.90751953 22.79355469 40.87753906 23.42773438 41.87695312 C24.94110052 44.25845179 26.4652886 46.6322232 28 49 C30.6465335 46.3534665 31.59941997 43.43778736 33 40 C34.23593891 43.70781672 33.5678132 44.67510253 32.0625 48.1875 C31.68222656 49.08855469 31.30195313 49.98960937 30.91015625 50.91796875 C30.60980469 51.60503906 30.30945313 52.29210937 30 53 C24.89297998 51.29765999 23.05073397 46.20078362 20.36499023 41.73779297 C19.32589196 40.02211181 18.25586047 38.32528942 17.18554688 36.62890625 C13.64827017 30.79188404 11.37396859 26.77201052 12.01098633 19.90820312 C11.99128658 16.48657614 9.91651851 14.65321613 7.6875 12.25 C0 3.7826087 0 3.7826087 0 0 Z " fill="#3A3A3A" transform="translate(126,168)"/>
<path d="M0 0 C1.32 0.33 2.64 0.66 4 1 C5.75 4.0625 5.75 4.0625 7 7 C8.74271938 4.702779 10.39911152 2.40133271 12 0 C12.99 0 13.98 0 15 0 C15 3.96 15 7.92 15 12 C13.35 12 11.7 12 10 12 C10 11.34 10 10.68 10 10 C10.66 10 11.32 10 12 10 C11.67 9.01 11.34 8.02 11 7 C9.515 9.475 9.515 9.475 8 12 C6.29159719 10.36587557 5.06546953 9.13093906 4 7 C3.67 7.99 3.34 8.98 3 10 C3.66 10 4.32 10 5 10 C5 10.66 5 11.32 5 12 C3.35 12 1.7 12 0 12 C0 8.04 0 4.08 0 0 Z " fill="#181818" transform="translate(231,300)"/>
<path d="M0 0 C3.66752005 1.5391801 5.98580573 3.75485452 8.765625 6.5703125 C9.65507812 7.46621094 10.54453125 8.36210937 11.4609375 9.28515625 C12.38132813 10.22230469 13.30171875 11.15945312 14.25 12.125 C15.19484856 13.07988637 16.14015633 14.03431859 17.0859375 14.98828125 C19.39518338 17.32109087 21.69963203 19.65844086 24 22 C22.61349567 24.77300866 20.65746752 25.45496074 18 27 C16.65368175 27.98244845 15.31558703 28.97676564 14 30 C13.34 29.67 12.68 29.34 12 29 C13.44253657 25.63408134 15.33264727 23.48952921 18 21 C16.5757048 17.74220734 14.84375932 15.61880869 12.3046875 13.14453125 C11.58925781 12.44005859 10.87382812 11.73558594 10.13671875 11.00976562 C9.39035156 10.28466797 8.64398438 9.55957031 7.875 8.8125 C6.39110476 7.36284849 4.90921416 5.91114109 3.4296875 4.45703125 C2.44331299 3.4976062 2.44331299 3.4976062 1.43701172 2.51879883 C0 1 0 1 0 0 Z " fill="#CECECE" transform="translate(151,177)"/>
<path d="M0 0 C2 3 2 3 1.6875 5.625 C1 8 1 8 0 9 C-2.9375 9.1875 -2.9375 9.1875 -6 9 C-6.66 8.34 -7.32 7.68 -8 7 C-7.75 3.4375 -7.75 3.4375 -7 0 C-4.27584084 -1.36207958 -2.87220643 -0.86166193 0 0 Z " fill="#DADADA" transform="translate(142,160)"/>
<path d="M0 0 C1.65 0 3.3 0 5 0 C5.83819158 1.62249941 6.6704116 3.24808497 7.5 4.875 C7.9640625 5.77992188 8.428125 6.68484375 8.90625 7.6171875 C10 10 10 10 10 12 C8.68 12 7.36 12 6 12 C6 11.01 6 10.02 6 9 C4.68 9.33 3.36 9.66 2 10 C2 10.66 2 11.32 2 12 C0.35 12 -1.3 12 -3 12 C-3 11.34 -3 10.68 -3 10 C-2.34 10 -1.68 10 -1 10 C-0.690625 9.05125 -0.38125 8.1025 -0.0625 7.125 C1 4 1 4 2 2 C1.34 2 0.68 2 0 2 C0 1.34 0 0.68 0 0 Z " fill="#2E2E2E" transform="translate(280,300)"/>
<path d="M0 0 C1.32 0 2.64 0 4 0 C3.67 1.65 3.34 3.3 3 5 C3.66 5 4.32 5 5 5 C5.33 3.35 5.66 1.7 6 0 C7.65 0 9.3 0 11 0 C11 0.66 11 1.32 11 2 C9 3.625 9 3.625 7 5 C8.3089572 8.12197478 8.3089572 8.12197478 11 10 C11 10.66 11 11.32 11 12 C9.35 12 7.7 12 6 12 C5.34 10.68 4.68 9.36 4 8 C4 9.32 4 10.64 4 12 C2.68 12 1.36 12 0 12 C0 8.04 0 4.08 0 0 Z " fill="#131313" transform="translate(172,300)"/>
<path d="M0 0 C1.4540625 0.0309375 1.4540625 0.0309375 2.9375 0.0625 C2.9375 1.0525 2.9375 2.0425 2.9375 3.0625 C1.2875 2.7325 -0.3625 2.4025 -2.0625 2.0625 C-0.12995228 4.0870738 1.56908688 5.48355792 3.9375 7.0625 C3.0625 10.9375 3.0625 10.9375 1.9375 12.0625 C-0.39547433 12.10342937 -2.72955225 12.10491723 -5.0625 12.0625 C-5.0625 10.7425 -5.0625 9.4225 -5.0625 8.0625 C-3.0825 8.7225 -1.1025 9.3825 0.9375 10.0625 C0.9375 9.0725 0.9375 8.0825 0.9375 7.0625 C-0.3825 6.7325 -1.7025 6.4025 -3.0625 6.0625 C-3.44468767 4.40635343 -3.77645102 2.73792976 -4.0625 1.0625 C-3.0625 0.0625 -3.0625 0.0625 0 0 Z " fill="#262626" transform="translate(271.0625,299.9375)"/>
<path d="M0 0 C1.4540625 0.0309375 1.4540625 0.0309375 2.9375 0.0625 C2.9375 1.0525 2.9375 2.0425 2.9375 3.0625 C1.2875 2.7325 -0.3625 2.4025 -2.0625 2.0625 C-1.216875 2.784375 -0.37125 3.50625 0.5 4.25 C2.9375 7.0625 2.9375 7.0625 2.75 9.875 C2.3478125 10.9578125 2.3478125 10.9578125 1.9375 12.0625 C-0.3725 12.0625 -2.6825 12.0625 -5.0625 12.0625 C-5.0625 10.7425 -5.0625 9.4225 -5.0625 8.0625 C-4.4025 8.0625 -3.7425 8.0625 -3.0625 8.0625 C-3.0625 8.7225 -3.0625 9.3825 -3.0625 10.0625 C-1.7425 10.0625 -0.4225 10.0625 0.9375 10.0625 C-0.99504772 8.0379262 -2.69408688 6.64144208 -5.0625 5.0625 C-3.9375 0.08035714 -3.9375 0.08035714 0 0 Z " fill="#212121" transform="translate(165.0625,299.9375)"/>
<path d="M0 0 C0 1.32 0 2.64 0 4 C-2.31 3.67 -4.62 3.34 -7 3 C-7.33 4.65 -7.66 6.3 -8 8 C-5.69 8.66 -3.38 9.32 -1 10 C-1 10.66 -1 11.32 -1 12 C-7.3782235 12.36103152 -7.3782235 12.36103152 -9.9375 10.875 C-11.50422245 8.11019567 -11.38976435 6.11811483 -11 3 C-8.70019487 -1.31213463 -4.28166314 -0.2105736 0 0 Z " fill="#151515" transform="translate(313,300)"/>
<path d="M0 0 C2.5 0.125 2.5 0.125 3.5 1.125 C3.625 4.125 3.625 4.125 3.5 7.125 C2.5 8.125 2.5 8.125 0.0625 8.3125 C-2.5 8.125 -2.5 8.125 -4.5 6.125 C-3.77607362 0.18880368 -3.77607362 0.18880368 0 0 Z " fill="#D3D3D3" transform="translate(256.5,301.875)"/>
<path d="M0 0 C1.98 0 3.96 0 6 0 C6 0.66 6 1.32 6 2 C5.34 2 4.68 2 4 2 C4 4.64 4 7.28 4 10 C5.65 9.67 7.3 9.34 9 9 C9 9.99 9 10.98 9 12 C6.03 12 3.06 12 0 12 C0 8.04 0 4.08 0 0 Z " fill="#464646" transform="translate(195,300)"/>
<path d="M0 0 C0.8971875 0.9590625 0.8971875 0.9590625 1.8125 1.9375 C3.90810337 4.20310389 3.90810337 4.20310389 7 5 C6.34 5.66 5.68 6.32 5 7 C4.731875 7.78375 4.46375 8.5675 4.1875 9.375 C2.7273616 12.60267436 0.85395549 13.97218952 -2 16 C-2.66 15.67 -3.32 15.34 -4 15 C-2.95016316 12.73881295 -2.02303691 11.02474335 -0.3125 9.1875 C1.62363413 5.96060978 0.75439305 3.56622168 0 0 Z " fill="#3C3C3C" transform="translate(177,181)"/>
<path d="M0 0 C2.64 0 5.28 0 8 0 C8.25 2.3125 8.25 2.3125 8 5 C6.1875 6.8125 6.1875 6.8125 4 8 C3.01 8 2.02 8 1 8 C-0.35439668 5.29120665 -0.06501451 2.99066732 0 0 Z " fill="#DCDCDC" transform="translate(121,147)"/>
<path d="M0 0 C1.65 0 3.3 0 5 0 C5 0.66 5 1.32 5 2 C4.34 2 3.68 2 3 2 C3 4.64 3 7.28 3 10 C4.98 9.67 6.96 9.34 9 9 C9 9.99 9 10.98 9 12 C6.03 12 3.06 12 0 12 C0 8.04 0 4.08 0 0 Z " fill="#050505" transform="translate(208,300)"/>
<path d="M0 0 C1.65 0 3.3 0 5 0 C5 3.96 5 7.92 5 12 C3.35 12 1.7 12 0 12 C0 8.04 0 4.08 0 0 Z " fill="#434343" transform="translate(293,300)"/>
<path d="M0 0 C1.6260287 0.06000106 3.25101549 0.1487885 4.875 0.25 C6.23238281 0.31960937 6.23238281 0.31960937 7.6171875 0.390625 C10 1 10 1 11.34375 2.8125 C12.30988637 6.03295455 11.62572274 8.74624176 11 12 C9.68 12.33 8.36 12.66 7 13 C7.226875 11.741875 7.45375 10.48375 7.6875 9.1875 C8.13779206 5.96833328 8.13779206 5.96833328 6.875 3.0625 C4.60671393 1.7771379 2.5723216 1.34761103 0 1 C0 0.67 0 0.34 0 0 Z " fill="#8A8A8A" transform="translate(136,157)"/>
<path d="M0 0 C3.07697765 2.91250669 5.50914217 5.97047822 7.9375 9.4375 C10.72314211 13.33219214 13.45603435 16.78828113 17 20 C16.67 20.66 16.34 21.32 16 22 C15.34 21.67 14.68 21.34 14 21 C13.67 21.66 13.34 22.32 13 23 C12.75121094 22.11441406 12.50242188 21.22882813 12.24609375 20.31640625 C10.94339223 16.8493417 9.44990359 14.74281036 7.0625 11.9375 C0 3.58130841 0 3.58130841 0 0 Z " fill="#303030" transform="translate(126,168)"/>
<path d="M0 0 C1.32 1.32 2.64 2.64 4 4 C3.2575 4.433125 2.515 4.86625 1.75 5.3125 C-0.61833926 6.76579909 -2.80924065 8.29607606 -5 10 C-5.66 9.67 -6.32 9.34 -7 9 C-5.44499019 5.18315774 -2.96404505 2.80804268 0 0 Z " fill="#494949" transform="translate(170,197)"/>
<path d="M0 0 C1.32 0 2.64 0 4 0 C4 3.96 4 7.92 4 12 C2.35 12 0.7 12 -1 12 C-1 11.34 -1 10.68 -1 10 C-0.34 10 0.32 10 1 10 C0.67 6.7 0.34 3.4 0 0 Z " fill="#0C0C0C" transform="translate(187,300)"/>
<path d="M0 0 C0.66 1.65 1.32 3.3 2 5 C0.68 5 -0.64 5 -2 5 C-2 4.01 -2 3.02 -2 2 C-3.32 2.33 -4.64 2.66 -6 3 C-6 3.66 -6 4.32 -6 5 C-7.65 5 -9.3 5 -11 5 C-11 4.34 -11 3.68 -11 3 C-10.34 3 -9.68 3 -9 3 C-9 2.34 -9 1.68 -9 1 C-2.25 0 -2.25 0 0 0 Z " fill="#191919" transform="translate(288,307)"/>
<path d="M0 0 C3.33980581 -0.43562684 5.34976874 -0.32511563 8.375 1.1875 C10 3 10 3 10.25 5.6875 C10.1675 6.450625 10.085 7.21375 10 8 C9.01 8 8.02 8 7 8 C6.67 6.35 6.34 4.7 6 3 C3.36 3 0.72 3 -2 3 C-1.34 2.01 -0.68 1.02 0 0 Z " fill="#292929" transform="translate(253,300)"/>
<path d="M0 0 C3.80970805 1.54660166 6.02369189 3.90381401 8.75 6.9375 C9.94882813 8.25041016 9.94882813 8.25041016 11.171875 9.58984375 C13 12 13 12 13 15 C10.82722286 12.88094537 8.66173092 10.75527122 6.5 8.625 C5.87996094 8.02171875 5.25992188 7.4184375 4.62109375 6.796875 C4.03457031 6.21679688 3.44804687 5.63671875 2.84375 5.0390625 C2.29912109 4.50490723 1.75449219 3.97075195 1.19335938 3.42041016 C0 2 0 2 0 0 Z " fill="#474747" transform="translate(143,190)"/>
<path d="M0 0 C0.33 0 0.66 0 1 0 C1 2.64 1 5.28 1 8 C2.98 7.67 4.96 7.34 7 7 C7 7.99 7 8.98 7 10 C4.03 10 1.06 10 -2 10 C-2 9.34 -2 8.68 -2 8 C-1.34 8 -0.68 8 0 8 C0 5.36 0 2.72 0 0 Z " fill="#060606" transform="translate(197,302)"/>
<path d="M0 0 C0 1.32 0 2.64 0 4 C-1.093125 3.835 -2.18625 3.67 -3.3125 3.5 C-6.87525873 2.93281816 -6.87525873 2.93281816 -10 3 C-10 2.34 -10 1.68 -10 1 C-6.78548731 -0.60725635 -3.56387464 -0.05748185 0 0 Z " fill="#212121" transform="translate(313,300)"/>
<path d="M0 0 C1.98 0 3.96 0 6 0 C6 0.99 6 1.98 6 3 C4.35 2.67 2.7 2.34 1 2 C1.99 3.32 2.98 4.64 4 6 C2.35 5.67 0.7 5.34 -1 5 C-0.67 3.35 -0.34 1.7 0 0 Z " fill="#141414" transform="translate(268,300)"/>
<path d="M0 0 C0.99 0.33 1.98 0.66 3 1 C1.02 3.97 1.02 3.97 -1 7 C-1.99 6.01 -2.98 5.02 -4 4 C-3.67 3.01 -3.34 2.02 -3 1 C-2.34 1.33 -1.68 1.66 -1 2 C-0.67 1.34 -0.34 0.68 0 0 Z " fill="#161616" transform="translate(240,305)"/>
<path d="M0 0 C0.33 0.99 0.66 1.98 1 3 C-0.62339805 4.70884005 -2.29319053 6.37446717 -4 8 C-4.66 8 -5.32 8 -6 8 C-4.55746343 4.63408134 -2.66735273 2.48952921 0 0 Z " fill="#C8C8C8" transform="translate(169,198)"/>
<path d="M0 0 C0.33 0.99 0.66 1.98 1 3 C-0.62339805 4.70884005 -2.29319053 6.37446717 -4 8 C-4.66 8 -5.32 8 -6 8 C-4.55746343 4.63408134 -2.66735273 2.48952921 0 0 Z " fill="#C8C8C8" transform="translate(179,188)"/>
<path d="M0 0 C1.65 0 3.3 0 5 0 C5 0.66 5 1.32 5 2 C4.01 2.495 4.01 2.495 3 3 C2.59270772 5.32156597 2.25561323 7.6568787 2 10 C1.67 10 1.34 10 1 10 C0.67 6.7 0.34 3.4 0 0 Z " fill="#0B0B0B" transform="translate(208,300)"/>
<path d="M0 0 C0.33 0 0.66 0 1 0 C1.33 3.3 1.66 6.6 2 10 C0.35 10 -1.3 10 -3 10 C-3 9.34 -3 8.68 -3 8 C-2.01 8 -1.02 8 0 8 C0 5.36 0 2.72 0 0 Z " fill="#303030" transform="translate(244,302)"/>
<path d="M0 0 C0.33 0 0.66 0 1 0 C1 2.64 1 5.28 1 8 C1.66 8 2.32 8 3 8 C3 8.66 3 9.32 3 10 C1.35 10 -0.3 10 -2 10 C-2 9.34 -2 8.68 -2 8 C-1.34 8 -0.68 8 0 8 C0 5.36 0 2.72 0 0 Z " fill="#070707" transform="translate(295,302)"/>
<path d="M0 0 C0 0.99 0 1.98 0 3 C-0.969375 3.12375 -1.93875 3.2475 -2.9375 3.375 C-3.948125 3.58125 -4.95875 3.7875 -6 4 C-6.33 4.66 -6.66 5.32 -7 6 C-7.33 4.35 -7.66 2.7 -8 1 C-7.34 1 -6.68 1 -6 1 C-6 1.66 -6 2.32 -6 3 C-4.02 2.01 -2.04 1.02 0 0 Z " fill="#373737" transform="translate(128,152)"/>
<path d="M0 0 C1.98 0 3.96 0 6 0 C6 0.99 6 1.98 6 3 C3.03 2.505 3.03 2.505 0 2 C-0.33 2.66 -0.66 3.32 -1 4 C-0.67 2.68 -0.34 1.36 0 0 Z " fill="#111111" transform="translate(162,300)"/>
<path d="M0 0 C2.97 0.495 2.97 0.495 6 1 C3.66785852 2.20628008 1.50357861 3.1654738 -1 4 C-1.33 4.66 -1.66 5.32 -2 6 C-2.66 5.67 -3.32 5.34 -4 5 C-2.68 3.35 -1.36 1.7 0 0 Z " fill="#757575" transform="translate(135,157)"/>
</svg>
