<?xml version="1.0" encoding="UTF-8"?>
<svg version="1.1" xmlns="http://www.w3.org/2000/svg" width="283" height="267">
<path d="M0 0 C3.26771518 0.03718595 4.82049711 0.15943718 7.34765625 2.28125 C9.17943121 4.65129141 10.78353484 7.08766403 12.375 9.625 C13.59924301 11.33686522 14.82838026 13.04524138 16.0625 14.75 C18.73499721 18.60224823 21.13684031 22.50678617 23.375 26.625 C26.22897744 23.08658454 29.0132339 19.50481609 31.75 15.875 C32.5440625 14.8334375 33.338125 13.791875 34.15625 12.71875 C36.10310867 10.00411607 37.65747069 7.30080966 39.25 4.375 C40.625 2.20703125 40.625 2.20703125 42.375 0.625 C46.15448044 -0.11514825 49.57871264 0.07784826 53.375 0.625 C54.61323928 3.10147855 54.50194221 4.74813741 54.50439453 7.51782227 C54.50754669 8.53550186 54.51069885 9.55318146 54.51394653 10.60169983 C54.5119223 11.70380295 54.50989807 12.80590607 54.5078125 13.94140625 C54.50876923 15.06820297 54.50972595 16.19499969 54.51071167 17.35594177 C54.51139303 19.74079443 54.50954181 22.12564894 54.50537109 24.51049805 C54.50001729 28.17566052 54.50532017 31.84070071 54.51171875 35.50585938 C54.51105806 37.81770861 54.50977708 40.12955776 54.5078125 42.44140625 C54.50983673 43.5455336 54.51186096 44.64966095 54.51394653 45.7872467 C54.50921829 47.30903786 54.50921829 47.30903786 54.50439453 48.86157227 C54.50359894 49.75932877 54.50280334 50.65708527 54.50198364 51.58204651 C54.375 53.625 54.375 53.625 53.375 54.625 C49.085 54.625 44.795 54.625 40.375 54.625 C40.045 45.385 39.715 36.145 39.375 26.625 C37.065 30.255 34.755 33.885 32.375 37.625 C29.57017714 41.20114915 28.37711557 42.36519226 24 43.5 C18.39177371 42.14629021 16.46625313 38.24826184 13.375 33.625 C11.725 31.315 10.075 29.005 8.375 26.625 C8.045 35.865 7.715 45.105 7.375 54.625 C3.085 54.625 -1.205 54.625 -5.625 54.625 C-5.64964032 47.09529868 -5.66783141 39.56562061 -5.67993164 32.03588867 C-5.6849737 29.47208243 -5.69180714 26.90827909 -5.70043945 24.34448242 C-5.71251064 20.66844979 -5.71822942 16.99245502 -5.72265625 13.31640625 C-5.72781754 12.16225723 -5.73297882 11.00810822 -5.73829651 9.81898499 C-5.73837204 8.75796066 -5.73844757 7.69693634 -5.73852539 6.60375977 C-5.740746 5.66444107 -5.74296661 4.72512238 -5.74525452 3.75733948 C-5.5283882 -0.08810944 -3.44574561 0.2810729 0 0 Z " fill="#050505" transform="translate(167.625,114.375)"/>
<path d="M0 0 C4.42289153 2.88407369 8.08872579 6.48612156 9.44140625 11.6875 C9.72265625 14.1640625 9.72265625 14.1640625 9.78515625 18.1640625 C5.16515625 18.1640625 0.54515625 18.1640625 -4.21484375 18.1640625 C-5.69984375 14.6990625 -5.69984375 14.6990625 -7.21484375 11.1640625 C-8.81817166 11.08284326 -10.42268401 11.02477116 -12.02734375 10.9765625 C-12.92066406 10.94175781 -13.81398438 10.90695313 -14.734375 10.87109375 C-17.24448057 10.97702452 -17.24448057 10.97702452 -19.1015625 12.42578125 C-20.40678368 14.10961063 -20.40678368 14.10961063 -20.17578125 16.2265625 C-18.85602245 18.88753959 -17.61353981 19.18408156 -14.83984375 20.1640625 C-13.93878906 20.49535156 -13.03773437 20.82664063 -12.109375 21.16796875 C-10.19219658 21.82772651 -8.27293334 22.48145932 -6.3515625 23.12890625 C6.47074925 27.54488913 6.47074925 27.54488913 9.94921875 32.984375 C11.95728238 38.22035399 11.34833207 44.26334412 9.78515625 49.5390625 C6.43826192 53.93186131 1.98179765 56.4318487 -3.21484375 58.1640625 C-12.65981304 58.91451409 -21.36595144 59.25849653 -29.21484375 53.1640625 C-33.85904585 48.71426886 -34.88336873 44.46208779 -35.21484375 38.1640625 C-30.59484375 38.1640625 -25.97484375 38.1640625 -21.21484375 38.1640625 C-20.22484375 40.1440625 -19.23484375 42.1240625 -18.21484375 44.1640625 C-14.15096556 46.76042912 -10.80684316 46.13544699 -6.21484375 45.1640625 C-4.85865876 44.03872145 -4.85865876 44.03872145 -5.15234375 41.1015625 C-5.17296875 40.1321875 -5.19359375 39.1628125 -5.21484375 38.1640625 C-9.28731002 35.99330345 -13.13601825 34.53241938 -17.58984375 33.3515625 C-23.88007955 31.47527502 -29.74112433 29.0338414 -33.3984375 23.3125 C-35.0122927 19.06551264 -34.73889833 14.6217613 -34.21484375 10.1640625 C-31.60375561 4.84517926 -27.98958635 1.2574992 -22.44921875 -0.92578125 C-15.43438863 -2.89976122 -6.74964241 -3.06671651 0 0 Z " fill="#060606" transform="translate(139.21484375,113.8359375)"/>
<path d="M0 0 C1.32708733 0.00539291 1.32708733 0.00539291 2.6809845 0.01089478 C4.07108734 0.01067574 4.07108734 0.01067574 5.48927307 0.01045227 C8.56809285 0.01115178 11.64685295 0.01894595 14.72566223 0.02676392 C16.85415616 0.02862796 18.98265051 0.03005193 21.11114502 0.03105164 C26.72537919 0.03487789 32.33958766 0.04470909 37.95381165 0.05575562 C43.67788851 0.06596743 49.40196951 0.07054876 55.12605286 0.07559204 C66.36629855 0.08633126 77.60652513 0.10340896 88.84675598 0.12442017 C88.84675598 5.07442017 88.84675598 10.02442017 88.84675598 15.12442017 C57.16675598 15.12442017 25.48675598 15.12442017 -7.15324402 15.12442017 C-7.15324402 0.01228059 -7.15324402 0.01228059 0 0 Z " fill="#020202" transform="translate(67.15324401855469,179.87557983398438)"/>
<path d="M0 0 C1.32708733 0.00539291 1.32708733 0.00539291 2.6809845 0.01089478 C4.07108734 0.01067574 4.07108734 0.01067574 5.48927307 0.01045227 C8.56809285 0.01115178 11.64685295 0.01894595 14.72566223 0.02676392 C16.85415616 0.02862796 18.98265051 0.03005193 21.11114502 0.03105164 C26.72537919 0.03487789 32.33958766 0.04470909 37.95381165 0.05575562 C43.67788851 0.06596743 49.40196951 0.07054876 55.12605286 0.07559204 C66.36629855 0.08633126 77.60652513 0.10340896 88.84675598 0.12442017 C88.84675598 5.07442017 88.84675598 10.02442017 88.84675598 15.12442017 C76.47756883 15.14754171 64.10838679 15.16533429 51.73918247 15.17623234 C45.99630536 15.18146158 40.25344297 15.18855997 34.51057434 15.19985962 C28.97335604 15.21068704 23.43615194 15.21669669 17.89892387 15.21929741 C15.78131321 15.22115192 13.66370336 15.22477303 11.54609871 15.23015022 C8.59104324 15.23735873 5.63604728 15.23841119 2.6809845 15.23794556 C1.35389717 15.24333847 1.35389717 15.24333847 0 15.24884033 C-6.03919186 15.23847233 -6.03919186 15.23847233 -7.15324402 14.12442017 C-7.25217341 11.9596122 -7.28295502 9.79148232 -7.27824402 7.62442017 C-7.28082214 6.43848267 -7.28340027 5.25254517 -7.28605652 4.03067017 C-7.04739004 -1.1919139 -4.63144595 0.00795121 0 0 Z " fill="#030303" transform="translate(162.1532440185547,94.87557983398438)"/>
<path d="M0 0 C17.8630093 -0.75595807 30.14571559 5.03340209 43.17578125 16.92578125 C47.09159376 19.80170994 50.12845323 20.14086911 54.90625 19.78125 C59.28685604 20.09098982 61.9248808 22.07890825 65.5 24.5 C66.90471546 25.416419 68.31099978 26.33043719 69.71875 27.2421875 C70.42644531 27.70334961 71.13414063 28.16451172 71.86328125 28.63964844 C75.17742594 30.7496135 78.57842553 32.695701 82 34.625 C82.60521484 34.96724609 83.21042969 35.30949219 83.83398438 35.66210938 C85.22104865 36.44426402 86.61025802 37.22261308 88 38 C88 38.99 88 39.98 88 41 C85.7101766 42.0044134 83.4183401 43.00367612 81.125 44 C80.47402344 44.28617188 79.82304688 44.57234375 79.15234375 44.8671875 C74.2265625 47 74.2265625 47 72 47 C72.33 47.99 72.66 48.98 73 50 C72.41089844 50.51949219 71.82179688 51.03898437 71.21484375 51.57421875 C70.46332031 52.27160156 69.71179688 52.96898437 68.9375 53.6875 C68.18339844 54.37199219 67.42929688 55.05648437 66.65234375 55.76171875 C64.66978977 57.8992226 64.66978977 57.8992226 65.37890625 60.64453125 C65.58386719 61.42183594 65.78882812 62.19914062 66 63 C65.34 63.66 64.68 64.32 64 65 C62.9171875 64.5978125 62.9171875 64.5978125 61.8125 64.1875 C58.97697444 63.66994746 58.97697444 63.66994746 57.2578125 65.484375 C56.05677247 66.77304456 54.88491602 68.08962567 53.74609375 69.43359375 C52 71 52 71 48 71 C47.81824219 71.56847656 47.63648438 72.13695313 47.44921875 72.72265625 C45.85915366 77.60701003 44.09540222 82.31029027 42 87 C37.87922184 85.62640728 37.48292489 83.72516572 35.4375 79.9375 C33.18938381 75.80088007 30.89273786 71.76580464 28.25390625 67.86328125 C20.30362035 56.04422946 20.30362035 56.04422946 21.21484375 48.34375 C20.80939719 43.92069667 17.37281312 41.10493327 14.51953125 37.91015625 C5.22528425 27.17494072 -0.97472477 14.37719037 0 0 Z M3 2 C3 4.31 3 6.62 3 9 C4.32 9.33 5.64 9.66 7 10 C7.825 9.05125 8.65 8.1025 9.5 7.125 C9.9640625 6.59132813 10.428125 6.05765625 10.90625 5.5078125 C12.19572458 4.04063579 12.19572458 4.04063579 12 2 C9.03 2 6.06 2 3 2 Z M15 3 C14.69707031 3.55429687 14.39414062 4.10859375 14.08203125 4.6796875 C10.61749571 10.67066895 10.61749571 10.67066895 7.1875 12.5 C6.465625 12.665 5.74375 12.83 5 13 C6.44198772 25.9194305 16.53726829 36.75578279 25 46 C25.61955566 46.67981934 26.23911133 47.35963867 26.87744141 48.06005859 C28.86803551 50.23566489 30.8683771 52.40167236 32.875 54.5625 C33.50543213 55.2416748 34.13586426 55.92084961 34.78540039 56.62060547 C39.51837993 61.74533879 39.51837993 61.74533879 45 66 C47.65045532 65.92637624 48.6744176 65.26957626 50.703125 63.58984375 C51.46882813 62.77193359 51.46882813 62.77193359 52.25 61.9375 C52.77078125 61.38964844 53.2915625 60.84179688 53.828125 60.27734375 C54.40820312 59.64505859 54.40820312 59.64505859 55 59 C53.4285218 54.90840737 50.46799838 52.4941606 47.25 49.6875 C42.80787892 45.70467948 38.53163128 41.84338004 35 37 C35.33 36.01 35.66 35.02 36 34 C45.09172009 38.1761967 52.06810556 46.95342349 59 54 C60.1581019 53.12008445 61.3010893 52.22025664 62.4375 51.3125 C63.07558594 50.81363281 63.71367188 50.31476563 64.37109375 49.80078125 C66.47516664 47.47469587 66.83010815 46.12748985 67 43 C65.40659555 40.52656015 65.40659555 40.52656015 62.9609375 38.26953125 C62.07672119 37.38869873 61.19250488 36.50786621 60.28149414 35.6003418 C59.31374003 34.66993938 58.34488657 33.74067925 57.375 32.8125 C56.39739101 31.85945292 55.42009664 30.906083 54.44311523 29.95239258 C36.95496517 12.77269101 36.95496517 12.77269101 15 3 Z M52 23 C53.58986928 26.96532102 56.35958606 29.58774495 59.375 32.5 C60.09816406 33.20962891 60.09816406 33.20962891 60.8359375 33.93359375 C62.95847212 36.01575407 65.09066833 38.08780511 67.2265625 40.15625 C69 42 69 42 71 45 C74.63 43.35 78.26 41.7 82 40 C80.55562673 35.6668802 77.26545489 34.65864103 73.4375 32.625 C71.97041324 31.82855371 70.50425542 31.03039373 69.0390625 30.23046875 C68.3368457 29.84810059 67.63462891 29.46573242 66.91113281 29.07177734 C64.63821377 27.79710762 62.47314492 26.39322409 60.3125 24.9375 C57.10575422 23.06185624 55.62491313 22.43360732 52 23 Z M68 49 C66.30911778 50.97956942 64.64169528 52.97945196 63 55 C65.62187494 53.95125002 66.79371361 53.35068687 68.25 50.875 C68.4975 50.25625 68.745 49.6375 69 49 C68.67 49 68.34 49 68 49 Z M25 51 C24.1172357 53.17934292 24.1172357 53.17934292 24 56 C25.23881297 58.38531055 26.46041154 60.39006713 28 62.5625 C28.83424563 63.79407584 29.66623958 65.02717962 30.49609375 66.26171875 C31.12620361 67.19056885 31.12620361 67.19056885 31.76904297 68.13818359 C34.73396137 72.62260797 37.34033503 77.33062035 40 82 C41.8272911 79.25906335 42.93698178 76.86174676 44.125 73.8125 C44.47820312 72.91144531 44.83140625 72.01039062 45.1953125 71.08203125 C45.46085937 70.39496094 45.72640625 69.70789063 46 69 C45.12601563 68.46632813 44.25203125 67.93265625 43.3515625 67.3828125 C39.78721222 65.00727664 37.15570111 62.10344112 34.375 58.875 C30.34834068 54.09349429 30.34834068 54.09349429 25 51 Z M54 63 C53.01 63.99 52.02 64.98 51 66 C51.33 66.66 51.66 67.32 52 68 C52.99 67.01 53.98 66.02 55 65 C54.67 64.34 54.34 63.68 54 63 Z " fill="#202020" transform="translate(40,53)"/>
<path d="M0 0 C3.73004118 1.98406446 4.75882115 3.46739671 6.5 7.3125 C7.12063564 11.88968787 6.29065944 14.02952363 4 18 C1.4642991 20.9113603 0.02362385 20.99695176 -3.875 21.5 C-8.64239584 21.33960164 -10.73679498 19.34279539 -14 16 C-15.53214888 12.93570224 -15.22938548 10.3834358 -15 7 C-11.73418295 0.00182061 -7.18520601 -0.99759451 0 0 Z M-10 8 C-9.72459296 11.81813447 -9.72459296 11.81813447 -8 15 C-3.82823251 15.37572989 -3.82823251 15.37572989 -0.0625 13.8125 C1.23330193 11.98086328 1.23330193 11.98086328 0.875 9.4375 C0.15610832 6.6738389 0.15610832 6.6738389 -3 5 C-6.51716303 5 -7.37121748 5.82445585 -10 8 Z " fill="#252525" transform="translate(67,64)"/>
<path d="M0 0 C3.9745504 0.69849772 7.26574098 2.62892769 10.75 4.5625 C11.65298828 5.0565332 11.65298828 5.0565332 12.57421875 5.56054688 C14.05170503 6.3696465 15.52616036 7.18427662 17 8 C17 8.99 17 9.98 17 11 C14.7101766 12.0044134 12.4183401 13.00367612 10.125 14 C9.47402344 14.28617188 8.82304688 14.57234375 8.15234375 14.8671875 C3.2265625 17 3.2265625 17 1 17 C1.33 17.99 1.66 18.98 2 20 C1.01 20.33 0.02 20.66 -1 21 C-1 20.01 -1 19.02 -1 18 C-1.66 18 -2.32 18 -3 18 C-2.76953125 16.10546875 -2.76953125 16.10546875 -2 14 C-0.07421875 12.98828125 -0.07421875 12.98828125 2.3125 12.3125 C3.09238281 12.08175781 3.87226562 11.85101563 4.67578125 11.61328125 C6.77993672 11.05806712 8.88627768 10.51754757 11 10 C9.04775796 7.70324466 6.99960941 6.40122884 4.375 5 C1 3 1 3 0 0 Z " fill="#1A1A1A" transform="translate(111,83)"/>
<path d="M0 0 C4.67594146 3.82577028 9.06191808 7.89925864 13.375 12.125 C13.91092773 12.6396582 14.44685547 13.15431641 14.99902344 13.68457031 C17.69122868 16.35263021 19.43170268 18.21676354 20 22 C20.66 22.99 21.32 23.98 22 25 C17.78071796 23.43730295 15.81626588 20.37951905 13 17 C12.41734375 16.73445313 11.8346875 16.46890625 11.234375 16.1953125 C7.82792556 14.37298116 5.42271527 11.63083799 2.75 8.875 C2.19570312 8.31167969 1.64140625 7.74835938 1.0703125 7.16796875 C-0.29104485 5.78313972 -1.64614859 4.39216796 -3 3 C-2.01 2.67 -1.02 2.34 0 2 C0 1.34 0 0.68 0 0 Z " fill="#1F1F1F" transform="translate(81,89)"/>
<path d="M0 0 C1.9375 0.8125 1.9375 0.8125 4 2 C4.33 2.99 4.66 3.98 5 5 C4.01 5.495 4.01 5.495 3 6 C3.90363281 6.90363281 4.80726562 7.80726562 5.73828125 8.73828125 C10.15885417 13.15885417 14.57942708 17.57942708 19 22 C13.4848483 22 9.77044785 16.6982596 6 13 C3.25405391 10.06452633 0.59661701 7.06806982 -2 4 C-1.34 2.68 -0.68 1.36 0 0 Z " fill="#1D1D1D" transform="translate(76,86)"/>
<path d="M0 0 C0 0.99 0 1.98 0 3 C-1.65 2.67 -3.3 2.34 -5 2 C-4.42365861 6.75481646 -2.44931479 9.97048212 0 14 C-2.25 13.9375 -2.25 13.9375 -5 13 C-8.12615863 8.88663338 -9.08025896 7.26407869 -8.75 2.0625 C-8.5025 1.051875 -8.255 0.04125 -8 -1 C-4.59745511 -2.2151946 -3.06748874 -1.86240388 0 0 Z " fill="#252525" transform="translate(70,103)"/>
<path d="M0 0 C9.16413554 -0.47040239 16.82858239 0.71884727 25 5 C25 5.99 25 6.98 25 8 C21.83807504 6.99743843 18.86954204 5.93738018 15.875 4.5 C10.86288212 2.27113494 5.39059208 1.75238149 0 1 C0 0.67 0 0.34 0 0 Z " fill="#1C1C1C" transform="translate(42,53)"/>
<path d="M0 0 C3.66786393 1.50349377 5.68910393 3.63728792 8.25 6.625 C8.95640625 7.44226563 9.6628125 8.25953125 10.390625 9.1015625 C10.92171875 9.72804688 11.4528125 10.35453125 12 11 C11.67 11.66 11.34 12.32 11 13 C10.34 13 9.68 13 9 13 C8.67 13.66 8.34 14.32 8 15 C7.608125 14.154375 7.21625 13.30875 6.8125 12.4375 C5.42196954 9.80028705 4.06457047 7.62425459 2.3125 5.25 C0 2 0 2 0 0 Z " fill="#222222" transform="translate(55,89)"/>
<path d="M0 0 C0.99 0.33 1.98 0.66 3 1 C0.06263499 8.78401728 0.06263499 8.78401728 -4 11 C-6.25 11.6875 -6.25 11.6875 -8 12 C-8.33 10.35 -8.66 8.7 -9 7 C-8.2575 6.95875 -7.515 6.9175 -6.75 6.875 C-2.90448224 5.65142617 -1.95694517 3.40653418 0 0 Z " fill="#292929" transform="translate(52,55)"/>
<path d="M0 0 C3.97834568 0.54497886 5.85088065 2.44804667 8.625 5.25 C9.40101562 6.01828125 10.17703125 6.7865625 10.9765625 7.578125 C12.99990159 9.99988221 14.01802749 12.02240594 15 15 C9.72997792 10.60831493 4.64697949 6.0573621 0 1 C0 0.67 0 0.34 0 0 Z " fill="#303030" transform="translate(78,91)"/>
<path d="M0 0 C6.45971564 4.9478673 6.45971564 4.9478673 7 9 C7.99 10.485 7.99 10.485 9 12 C5.54804233 10.5741914 3.8985744 8.90253666 1.75 5.875 C0.96882813 4.78832031 0.96882813 4.78832031 0.171875 3.6796875 C-0.21484375 3.12539062 -0.6015625 2.57109375 -1 2 C-0.67 1.34 -0.34 0.68 0 0 Z " fill="#252525" transform="translate(94,102)"/>
<path d="M0 0 C2.0625 0.4375 2.0625 0.4375 4 1 C3.01 2.485 3.01 2.485 2 4 C1.75944532 6.05709596 1.75944532 6.05709596 1.875 8.1875 C1.91625 9.445625 1.9575 10.70375 2 12 C-0.35953094 9.64046906 -0.49141413 8.22104383 -1 5 C-1.33 5.66 -1.66 6.32 -2 7 C-1.125 1.125 -1.125 1.125 0 0 Z " fill="#191919" transform="translate(55,66)"/>
<path d="M0 0 C2 1.75 2 1.75 4 4 C4 5.32 4 6.64 4 8 C3.34 8 2.68 8 2 8 C1.01 5.69 0.02 3.38 -1 1 C-0.67 0.67 -0.34 0.34 0 0 Z M-1 5 C-0.01 5.99 0.98 6.98 2 8 C1 11 1 11 -1 12 C-1 9.69 -1 7.38 -1 5 Z " fill="#1F1F1F" transform="translate(69,66)"/>
<path d="M0 0 C2.64 0.33 5.28 0.66 8 1 C8 1.33 8 1.66 8 2 C6.35 2 4.7 2 3 2 C3.061875 2.78375 3.12375 3.5675 3.1875 4.375 C3.125625 5.24125 3.06375 6.1075 3 7 C2.01 7.66 1.02 8.32 0 9 C0 6.03 0 3.06 0 0 Z " fill="#282828" transform="translate(40,53)"/>
<path d="M0 0 C4.75 1.875 4.75 1.875 7 3 C6.67 4.32 6.34 5.64 6 7 C2.535 5.02 2.535 5.02 -1 3 C-0.67 2.01 -0.34 1.02 0 0 Z " fill="#262626" transform="translate(67,59)"/>
<path d="M0 0 C2.97 0 5.94 0 9 0 C6 2 6 2 3 3 C3 3.66 3 4.32 3 5 C2.01 4.67 1.02 4.34 0 4 C0 2.68 0 1.36 0 0 Z " fill="#1B1B1B" transform="translate(88,74)"/>
<path d="M0 0 C1.32 0.66 2.64 1.32 4 2 C4 2.99 4 3.98 4 5 C3.34 5 2.68 5 2 5 C1.67 5.66 1.34 6.32 1 7 C0.34 5.02 -0.32 3.04 -1 1 C-0.67 0.67 -0.34 0.34 0 0 Z " fill="#1C1C1C" transform="translate(62,97)"/>
<path d="M0 0 C2.125 0.9375 2.125 0.9375 4 2 C4 2.99 4 3.98 4 5 C2.35 4.67 0.7 4.34 -1 4 C-1.33 3.01 -1.66 2.02 -2 1 C-1.34 0.67 -0.68 0.34 0 0 Z " fill="#303030" transform="translate(66,101)"/>
<path d="M0 0 C0.763125 0.20625 1.52625 0.4125 2.3125 0.625 C0.9925 1.615 -0.3275 2.605 -1.6875 3.625 C-3.0075 2.965 -4.3275 2.305 -5.6875 1.625 C-2.6875 -0.375 -2.6875 -0.375 0 0 Z " fill="#202020" transform="translate(115.6875,96.375)"/>
<path d="M0 0 C2.125 0.375 2.125 0.375 4 1 C3.1875 2.9375 3.1875 2.9375 2 5 C1.01 5.33 0.02 5.66 -1 6 C-1.625 4.125 -1.625 4.125 -2 2 C-1.34 1.34 -0.68 0.68 0 0 Z " fill="#2A2A2A" transform="translate(67,76)"/>
</svg>
